<svg xmlns="http://www.w3.org/2000/svg" width="150.013" height="88.337" viewBox="0 0 150.013 88.337"><g transform="translate(-885 -496)"><g transform="translate(664.945 111.932)"><path d="M220.243,426.311l46.485-27.044a.38.38,0,0,1,.57.328v27.979a.38.38,0,0,0,.182.324l25.2,15.268a.38.38,0,0,1,0,.648l-21.1,12.835a.38.38,0,0,1-.388,0l-50.945-29.686A.379.379,0,0,1,220.243,426.311Z" fill="#bbb9f8"/><path d="M271.1,396.8,293,384.124a.425.425,0,0,1,.428,0l21.152,12.667a.422.422,0,0,1,.006.72l-21.531,13.411a.422.422,0,0,1-.446,0l-21.522-13.4A.422.422,0,0,1,271.1,396.8Z" fill="#bbb9f8"/><path d="M311.294,419.5l21.617-12.3a.774.774,0,0,1,.772,0l36,20.938a.774.774,0,0,1,0,1.337L296.42,472.3a.774.774,0,0,1-1.165-.668V447.252a.774.774,0,0,1,.383-.668L323.6,430.207a.774.774,0,0,0,.032-1.316l-12.378-8.07A.774.774,0,0,1,311.294,419.5Z" fill="#bbb9f8"/></g></g></svg>