<svg xmlns="http://www.w3.org/2000/svg" width="118.497" height="30.835" viewBox="0 0 118.497 30.835"><g transform="translate(-300.045 -281.86)"><path d="M307.9,302.709c.635-.136.84.278,1.136.514,3.892,3.088,8.206,3.827,12.771,1.892a11.551,11.551,0,0,0,7.343-10.429,3.376,3.376,0,0,0,.028-.593c-.034-.328-.41-.767.01-.951.553-.241.72.384.933.713,2.713,4.178,2.98,8.534.481,12.835a11.514,11.514,0,0,1-11.54,5.955,11.7,11.7,0,0,1-10.434-7.737c-.151-.366-.247-.754-.371-1.131C308.15,303.449,308.039,303.122,307.9,302.709Z" fill="#e00427"/><path d="M316.743,289.428c-5.447,1.762-8.845,5.175-9.314,10.853-.457,5.526,2.252,9.384,7.032,11.952-3.161,1.109-8.924-.247-12.047-4.492a12.051,12.051,0,0,1,.135-14.529A12.2,12.2,0,0,1,316.743,289.428Z" fill="#055fa7"/><path d="M323.754,303.248c1.177-5.445-.163-10.058-4.787-13.244-4.549-3.135-9.34-2.881-14.063-.057.442-3.656,5.474-7.612,10.125-8.035a12.308,12.308,0,0,1,12.787,8.193C329.422,294.815,327.561,300.931,323.754,303.248Z" fill="#78c8de"/><text transform="translate(335.542 283.756)" font-size="12" font-family="Tahoma-Bold, Tahoma" font-weight="700"><tspan x="0" y="12">HILDEBRAND</tspan></text><text transform="translate(335.542 307.584)" font-size="12" font-family="Bahnschrift"><tspan x="0" y="0">INDUSTRY</tspan></text></g></svg>