<svg xmlns="http://www.w3.org/2000/svg" xmlns:xlink="http://www.w3.org/1999/xlink" width="136.63" height="44.21" viewBox="0 0 136.63 44.21"><defs><clipPath id="a"><rect width="136.63" height="44.21" fill="none"/></clipPath></defs><g clip-path="url(#a)"><g transform="translate(0 0)"><path d="M4.855,185.847a13.168,13.168,0,0,1,2.3-.237,8.813,8.813,0,0,1,2.245.259c3.51.932,6.2,2.318,9.892.538a8.549,8.549,0,0,0,3.89-3.867,12.823,12.823,0,0,0,.555-8.8c-.977-3.622-3.5-5.9-8.515-5.9H4.855v18.01ZM15.42,162.993c5.892,0,11,3.188,13.01,8.819.9,2.5.932,8.794,0,11.379a12.949,12.949,0,0,1-7.089,7.546,14.064,14.064,0,0,1-5.918,1.29c-4.431.07-7.357-2.543-12.134-1.329A14.1,14.1,0,0,0,.01,192.027V162.99H15.42Z" transform="translate(-0.01 -162.99)" fill="#ff7425" fill-rule="evenodd"/><path d="M113.993,175.675V163h24.229v4.847H118.837v7.822a10.787,10.787,0,0,1-2.662.276,13.575,13.575,0,0,1-2.186-.265m24.229,11.554v4.805H113.993V180.328a13.694,13.694,0,0,0,2.141.572,10.68,10.68,0,0,0,2.7.1v6.236h19.384Z" transform="translate(-81.886 -162.997)" fill="#ff7425" fill-rule="evenodd"/><path d="M299.507,181.093,305.853,168l5.673,11.7c-3.186.4-6.577,2.059-9.782,1.777a13.742,13.742,0,0,1-2.234-.389M288.9,192.041h5.3l3.315-6.839c1.07.284,2.124.6,3.18.811,2.9.591,4.247.135,6.971-.7,2.205-.676,3.217-1.084,5.518-.853.231.023.459.051.687.082l3.633,7.5h5.3c-4.974-9.937-9.453-18.888-14.54-29.051h-4.831C297.956,173.941,294.105,181.639,288.9,192.041Z" transform="translate(-207.53 -162.99)" fill="#ff7425" fill-rule="evenodd"/><path d="M385.6,162.993c1.605,6.847,5.847,8.112,8.07,11.754,2.09,3.422.969,6.166,4.442,9.546l-3.879,7.751h5.3l14.083-29.051h-4.847l-8.323,16.629a33.053,33.053,0,0,1-1.208-3.434,14.7,14.7,0,0,0-2.611-5.614c-1.225-1.746-2.766-2.589-4.073-3.943a8.443,8.443,0,0,1-2.081-3.642H385.59Z" transform="translate(-276.986 -162.99)" fill="#ff7425" fill-rule="evenodd"/><path d="M226.369,192.051V168.458a10.1,10.1,0,0,0-4.715-.606c-1.963.2-3.828.724-5.754,1.076v-4.7c1.318-.208,2.467-.659,3.774-.949.434-.082.87-.158,1.313-.217a10.112,10.112,0,0,1,1.262-.051c3.49.085,7.281,2.174,10.85,1.859,2.383-.208,4.011-1.014,6.478-1.628.211-.054.425-.1.645-.135a11.815,11.815,0,0,1,1.853-.1v4.87c-2.865-.068-5.377,1.008-7.932,1.529a11.392,11.392,0,0,1-2.538.268v22.378h-5.236Z" transform="translate(-155.091 -162.997)" fill="#ff7425" fill-rule="evenodd"/><path d="M133.384,208.647v-4.7c-1.318-.208-2.467-.659-3.774-.949-.434-.082-.87-.158-1.313-.217a10.134,10.134,0,0,0-1.262-.048c-3.49.085-7.281,2.172-10.85,1.859a13.894,13.894,0,0,1-2.186-.377v4.645c.38.1.76.186,1.141.265,2.9.592,4.248.135,6.971-.7,2.2-.676,3.217-1.084,5.518-.853,1.963.2,3.828.724,5.757,1.076" transform="translate(-81.893 -191.536)" fill="#ff7425" fill-rule="evenodd"/><path d="M156.437,295.361c0,1.31,1.175,1.729,2.434,2.087,1.186.335,1.49.473,1.49,1.006s-.358.848-1.332.848a2.919,2.919,0,0,1-2.076-.955l-.932,1.059a4.325,4.325,0,0,0,3.124,1.29c1.563,0,2.7-.839,2.7-2.3s-.913-1.845-2.307-2.211c-1.206-.315-1.572-.431-1.572-.89s.439-.755,1.152-.755a2.141,2.141,0,0,1,1.645.62l.9-1.09a3.346,3.346,0,0,0-2.549-.924,2.473,2.473,0,0,0-2.673,2.211" transform="translate(-112.077 -256.489)" fill="#ff7425"/><path d="M189.443,294.883h2.518V293.52h-6.5v1.363h2.515v5.977h1.467Z" transform="translate(-133.225 -256.754)" fill="#ff7425"/><path d="M219.487,297.714V293.52H218.07v4.4a3.258,3.258,0,0,0,6.5,0v-4.4h-1.417v4.194a1.834,1.834,0,1,1-3.667,0" transform="translate(-156.65 -256.754)" fill="#ff7425"/><path d="M254.556,300.86a3.672,3.672,0,1,0,0-7.34H251.41v7.34Zm-1.679-1.363v-4.614h1.679a2.307,2.307,0,0,1,0,4.614Z" transform="translate(-180.6 -256.754)" fill="#ff7425"/><rect width="1.467" height="7.34" transform="translate(80.632 36.766)" fill="#ff7425"/><path d="M301.919,296.92a3.828,3.828,0,1,0,3.828-3.774,3.714,3.714,0,0,0-3.828,3.774m1.467,0a2.361,2.361,0,1,1,2.36,2.411A2.286,2.286,0,0,1,303.386,296.92Z" transform="translate(-216.881 -256.484)" fill="#ff7425"/></g></g></svg>